<svg width="512" height="512" viewBox="0 0 512 512" xmlns="http://www.w3.org/2000/svg">
  <defs>
    <linearGradient id="shieldGrad" x1="0" y1="0" x2="0" y2="1">
      <stop offset="0" stop-color="#6366f1"/>
      <stop offset="1" stop-color="#1e1b4b"/>
    </linearGradient>
    <linearGradient id="silverGradV" x1="0" y1="0" x2="0" y2="1">
      <stop offset="0" stop-color="#f8fafc"/>
      <stop offset="1" stop-color="#94a3b8"/>
    </linearGradient>
    <linearGradient id="goldGradH" x1="0" y1="0" x2="1" y2="0">
      <stop offset="0" stop-color="#fde68a"/>
      <stop offset="0.5" stop-color="#f59e0b"/>
      <stop offset="1" stop-color="#b45309"/>
    </linearGradient>
    <linearGradient id="goldGradV" x1="0" y1="0" x2="0" y2="1">
      <stop offset="0" stop-color="#fde68a"/>
      <stop offset="1" stop-color="#b45309"/>
    </linearGradient>
  </defs>

  <path d="M256 50 L412 108 V258 C412 376 334 442 256 474 C178 442 100 376 100 258 V108 Z"
        fill="url(#shieldGrad)" stroke="#d4af37" stroke-width="7" stroke-linejoin="round"/>
  <ellipse cx="256" cy="150" rx="120" ry="55" fill="#ffffff" opacity="0.08"/>

  <g transform="translate(256,256) rotate(-45)">
    <polygon points="0,-170 12,38 -12,38" fill="url(#silverGradV)" stroke="#475569" stroke-width="1.5" stroke-opacity="0.5"/>
    <line x1="0" y1="-145" x2="0" y2="15" stroke="#475569" stroke-opacity="0.35" stroke-width="3" stroke-linecap="round"/>
    <rect x="-62" y="29" width="124" height="18" rx="9" fill="url(#goldGradH)" stroke="#78350f" stroke-width="2"/>
    <rect x="-7" y="47" width="14" height="34" rx="6" fill="url(#goldGradV)" stroke="#78350f" stroke-width="1.5"/>
    <line x1="-7" y1="57" x2="7" y2="57" stroke="#7c2d12" stroke-opacity="0.6" stroke-width="2"/>
    <line x1="-7" y1="68" x2="7" y2="68" stroke="#7c2d12" stroke-opacity="0.6" stroke-width="2"/>
    <circle cx="0" cy="90" r="12" fill="url(#goldGradV)" stroke="#92400e" stroke-width="1.5"/>
    <circle cx="0" cy="90" r="4.5" fill="#ef4444"/>
    <circle cx="-1.5" cy="88.5" r="1.4" fill="#fecaca" opacity="0.9"/>
  </g>

  <g transform="translate(256,256) rotate(45)">
    <polygon points="0,-170 12,38 -12,38" fill="url(#silverGradV)" stroke="#475569" stroke-width="1.5" stroke-opacity="0.5"/>
    <line x1="0" y1="-145" x2="0" y2="15" stroke="#475569" stroke-opacity="0.35" stroke-width="3" stroke-linecap="round"/>
    <rect x="-62" y="29" width="124" height="18" rx="9" fill="url(#goldGradH)" stroke="#78350f" stroke-width="2"/>
    <rect x="-7" y="47" width="14" height="34" rx="6" fill="url(#goldGradV)" stroke="#78350f" stroke-width="1.5"/>
    <line x1="-7" y1="57" x2="7" y2="57" stroke="#7c2d12" stroke-opacity="0.6" stroke-width="2"/>
    <line x1="-7" y1="68" x2="7" y2="68" stroke="#7c2d12" stroke-opacity="0.6" stroke-width="2"/>
    <circle cx="0" cy="90" r="12" fill="url(#goldGradV)" stroke="#92400e" stroke-width="1.5"/>
    <circle cx="0" cy="90" r="4.5" fill="#ef4444"/>
    <circle cx="-1.5" cy="88.5" r="1.4" fill="#fecaca" opacity="0.9"/>
  </g>
</svg>
